<?xml version="1.0" encoding="UTF-8" standalone="no"?>
<svg
   xmlns:dc="http://purl.org/dc/elements/1.1/"
   xmlns:cc="http://creativecommons.org/ns#"
   xmlns:rdf="http://www.w3.org/1999/02/22-rdf-syntax-ns#"
   xmlns:svg="http://www.w3.org/2000/svg"
   xmlns="http://www.w3.org/2000/svg"
   id="svg8"
   version="1.1"
   viewBox="0 0 12.7 12.7"
   height="48"
   width="48">
  <defs
     id="defs2">
    <clipPath
       id="clipPath5343"
       clipPathUnits="userSpaceOnUse">
      <path
         id="path5345"
         d="m 3.0688351,285.55677 c -1.613568,1.19596 -2.5662181,3.08478 -2.56883509,5.09323 0,3.50701 2.84299219,6.35 6.35000009,6.35 C 10.357008,297 13.2,294.15701 13.2,290.65 c -0.0022,-0.84296 -0.452078,-2.71271 -0.500228,-2.45359 -0.02424,0.84121 -0.571809,2.35322 -0.602031,2.23138 -0.0026,-0.50621 -0.2876,-1.42626 -0.305098,-1.19509 0.02804,1.40695 -1.48374,3.17677 -2.3076623,3.50038 -0.8310457,0.36942 -1.7371637,0.56412 -2.6117267,0.56534 -0.1736918,2e-5 -1.1686519,-0.13807 -1.6443439,-0.70435 -0.826376,-0.89253 -0.00201,-1.09994 0.4625039,-1.27331 0.5055862,-0.18871 1.030887,-0.30969 1.5203212,-0.42013 0.7456988,-0.16826 0.4710618,-0.52626 0.1049028,-0.6289 -0.9266939,-0.25976 -2.044886,0.33543 -2.8654579,0.30593 -0.848406,-0.0291 -0.804618,-1.69621 -0.1405601,-1.76217 0.7394212,-0.0734 1.6665151,-0.51079 1.461779,-0.65673 -0.8303549,-0.61672 -0.9617369,-0.79081 -1.0595549,-1.16418 -0.1480201,-0.565 0.341282,-1.03557 0.05777,-0.96356 -0.2596169,0.08 -0.4110678,0.15641 -0.5988619,0.25715 -0.1672929,0.0897 -0.293814,0.0546 -0.6751841,0.002 -0.3249449,-0.045 -0.3870058,-0.0557 -0.3755009,-0.25673 0.0115,-0.20097 0.07295,-0.52125 -0.05223,-0.47648 z"
         style="fill:#7aafff;fill-opacity:1;stroke:none;stroke-width:2.01045942;stroke-linecap:round;stroke-linejoin:round;stroke-miterlimit:4;stroke-dasharray:none;stroke-opacity:1" />
    </clipPath>
    <clipPath
       id="clipPath4543"
       clipPathUnits="userSpaceOnUse">
      <path
         id="path4545"
         d="m 1.7760088,291.5696 c -1.82613339,0.17434 -3.2940315,0.91934 -3.4903996,2.16451 -0.2629054,1.66729 1.5678591,3.34127 4.0891213,3.73893 1.2172084,0.19119 2.434234,0.053 3.3807423,-0.38387 0.7310194,0.5283 1.669357,0.90078 2.6704721,1.06008 2.5212691,0.39771 4.7783381,-0.6315 5.0412801,-2.2988 0.262905,-1.6673 -1.490667,-1.94329 -4.257163,-2.17938 -2.7664958,-0.23609 -3.6163896,-1.68839 -5.7470448,-2.04575 -0.5660191,-0.0893 -1.1380808,-0.10817 -1.6870084,-0.0557 z"
         style="opacity:1;vector-effect:none;fill:#666666;fill-opacity:1;stroke:none;stroke-width:2.11666656;stroke-linecap:round;stroke-linejoin:round;stroke-miterlimit:4;stroke-dasharray:none;stroke-dashoffset:0;stroke-opacity:1" />
    </clipPath>
  </defs>
  <metadata
     id="metadata5">
    <rdf:RDF>
      <cc:Work
         rdf:about="">
        <dc:format>image/svg+xml</dc:format>
        <dc:type
           rdf:resource="http://purl.org/dc/dcmitype/StillImage" />
        <dc:title></dc:title>
      </cc:Work>
    </rdf:RDF>
  </metadata>
  <g
     style="display:inline"
     id="g2362"
     transform="translate(0,-284.3)">
    <path
       id="path2338"
       d="m 6.3808206,284.85415 c -0.4336402,4.8e-4 -4.4615943,5.98329 -4.3447756,7.52147 0.1168187,1.53818 1.6667799,4.28631 4.2220048,4.28625 2.5550326,-2e-4 4.3903242,-1.62865 4.4367962,-4.02433 0.04647,-2.39569 -3.8803852,-7.78387 -4.3140254,-7.78339 z"
       style="opacity:1;vector-effect:none;fill:#333d4d;fill-opacity:1;stroke:none;stroke-width:0.369212;stroke-linecap:round;stroke-linejoin:round;stroke-miterlimit:4;stroke-dasharray:none;stroke-dashoffset:15;stroke-opacity:1" />
    <g
       id="g2340"
       transform="matrix(1.201866,0,0,1.201866,-1.166375,-58.446187)"
       style="fill:#5b99f8;fill-opacity:1" />
    <path
       transform="matrix(0.26458333,0,0,0.26458333,0,284.3)"
       id="path2483"
       d="M 21.78309,45.839266 C 17.417274,44.714485 15.877855,43.668394 15.877855,43.668394 14.235627,42.561033 12.78151,41.321046 11.871603,40.045039 11.213291,39.121857 10.289842,37.167841 9.9582603,36.138533 8.1692571,30.527775 10.450381,24.181175 13.894871,20.438043 c 2.149349,-2.239315 5.020197,-3.03282 8.299337,-3.457719 3.821306,-0.495151 7.320427,0.229503 9.773752,2.682828 1.603142,1.335538 1.949918,2.448885 1.923315,4.507704 0.0083,0.840049 -0.0042,0.917605 -0.174822,1.088373 -0.158769,0.158903 -0.257293,0.181794 -0.725582,0.168575 -0.309189,-0.0087 -1.009217,-0.136082 -1.630241,-0.296587 -1.303571,-0.336909 -1.759597,-0.409094 -2.137073,-0.338279 -0.251833,0.04724 -0.326497,0.126597 -0.661327,0.702856 -0.207594,0.35728 -0.468104,0.709003 -0.578911,0.781607 -0.298604,0.195653 -0.772882,0.142558 -1.608178,-0.180034 -1.293416,-0.499517 -1.853431,-0.473076 -2.382454,0.112489 -0.358888,0.397247 -0.542835,0.760024 -0.796695,1.571231 -0.404836,1.293652 -0.441709,2.535462 -0.103729,3.493399 0.553976,1.200696 1.376852,2.179433 2.294385,3.096194 0.70942,0.686299 1.901366,1.682305 5.2484,4.129466 2.741821,2.004663 4.34814,3.024171 4.34814,3.33241 0,0.303874 -1.788546,1.437311 -3.361277,2.196299 -1.326202,0.640016 -2.581182,1.016607 -3.958764,1.379494 -2.074117,0.438374 -4.176306,0.577991 -5.880057,0.430917 z"
       style="fill:#5f6e82;fill-opacity:1;stroke:none;stroke-width:0.0806203" />
    <path
       transform="matrix(0.26458333,0,0,0.26458333,0,284.3)"
       id="path2485"
       d=""
       style="fill:#005088;fill-opacity:1;stroke:none;stroke-width:0.0806203" />
    <path
       transform="matrix(0.26458333,0,0,0.26458333,0,284.3)"
       id="path2497"
       d="m 22.733618,47.235209 c -0.107442,-0.01216 -0.471629,-0.04963 -0.809304,-0.08326 C 20.64974,47.025 19.203212,46.706711 17.930177,46.273088 11.65148,44.134429 7.4005988,38.894046 6.6939082,32.421288 6.4512157,30.198406 6.5578865,28.557773 7.0803884,26.47709 8.2329591,21.887379 11.589158,15.530156 16.303304,9.0072893 19.409945,4.7086931 22.92275,0.71831599 23.900209,0.377572 c 0.260315,-0.0907461 0.564049,0.0981052 1.417094,0.8810981 2.035912,1.8687241 5.521805,6.1968834 8.331019,10.3439729 5.101413,7.530936 7.83882,13.92588 7.83882,18.312518 0,4.847106 -1.821925,9.299511 -5.114404,12.498533 -2.680889,2.604792 -6.010329,4.177947 -9.983299,4.717092 -0.631829,0.08574 -3.178325,0.158478 -3.655821,0.104423 z m 4.718563,-1.782097 c 1.495353,-0.397979 2.504546,-0.760712 3.765174,-1.353313 1.612515,-0.758017 3.404658,-1.955584 3.404658,-2.275101 0,-0.04903 -0.131861,-0.229323 -0.293024,-0.400652 -0.601156,-0.639078 -1.170646,-1.001119 -5.971036,-4.564525 -1.371465,-1.085495 -2.867787,-2.192499 -4.064807,-3.704695 -0.182406,-1.614964 0.01232,-4.455735 1.392214,-5.42986 0.213171,-0.135189 0.309395,-0.159501 0.631276,-0.159501 0.383237,0 0.664714,0.07643 1.83094,0.497132 0.966568,0.348682 1.189518,0.238401 1.850616,-0.915388 0.232135,-0.405136 0.505993,-0.584117 0.89584,-0.585479 0.144502,-5.03e-4 0.817395,0.136651 1.495317,0.304791 2.087862,0.517838 2.521372,0.531224 2.752402,0.08499 0.151546,-0.292712 0.106364,-1.704069 -0.07237,-2.26047 -0.18787,-0.584858 -0.566866,-1.299359 -0.979249,-1.846128 -0.202315,-0.268244 -0.41389,-0.577951 -0.470167,-0.688239 -0.152132,-0.298135 -1.053367,-1.480399 -1.490338,-1.955065 -1.680387,-1.825347 -4.114097,-2.992774 -6.883471,-3.301935 -0.723344,-0.08075 -2.480855,-0.03539 -3.28298,0.08472 -4.033248,0.603984 -7.121016,2.550421 -9.303705,5.864778 -2.604596,4.39028 -3.715588,8.895772 -2.282174,13.263619 0.310442,0.932924 1.119085,2.59304 1.681808,3.452693 0.87708,1.339884 1.987954,2.445779 3.68381,3.667298 0.268595,0.193469 0.626494,0.420426 0.795332,0.504351 0.168837,0.08393 0.432559,0.238013 0.586048,0.342417 0.716146,0.487129 2.496424,1.114874 3.823263,1.348124 1.479777,0.325318 2.376704,0.266555 3.406933,0.270393 1.076133,0.01583 2.061549,-0.02593 3.097684,-0.244955 z"
       style="fill:#2a323d;fill-opacity:1;stroke:none;stroke-width:0.0558141" />
  </g>
  <g
     style="display:none"
     id="layer1">
    <path
       d="M 9.5272225,1.7336267 C 9.3884361,1.878536 9.146205,2.3153605 8.8141085,2.6617692 8.0532599,3.4557675 7.4733301,4.0662718 6.1994679,5.4056066 5.8574573,5.7665937 5.1671918,6.103327 5.1424086,6.1290511 L 4.1630992,7.166017 4.1505005,7.3971194 c -0.00743,0.00944 0.1604743,0.00367 0.1604743,0.00367 0,0 0.4188378,0.00352 0.941767,0.00267 0.8996344,0 0.9492006,8.394e-4 0.9368089,0.014579 -0.01983,0.026576 -2.6542939,3.3723466 -2.8624742,3.6381566 -0.1090483,0.138916 -0.4051352,0.403881 -0.6432444,0.593864 -0.2452668,0.195694 -0.3497463,0.275594 -0.3547021,0.28074 -0.00496,0.0061 0.1379544,0.231446 0.1478761,0.231446 0.0099,-8.39e-4 0.1635685,-0.120908 0.3444881,-0.268383 0.1809125,-0.147425 0.5130084,-0.418376 0.741015,-0.601871 0.2255279,-0.18435 0.5873646,-0.477597 0.8029797,-0.65166 C 4.5811038,10.465409 4.9379843,10.176449 5.1585555,9.9972427 5.3791269,9.8180356 5.8822288,9.4107465 6.2738054,9.0926343 6.6653876,8.7745257 7.1660107,8.3680929 7.3865823,8.1897451 7.6071535,8.0122521 7.9640334,7.7207193 8.1846058,7.54237 8.4051778,7.364879 8.6703589,7.1488006 8.7769269,7.062199 l 0.045442,-0.3874929 c 0,0 -0.7252092,-4.605e-4 -1.08799,0 -0.5972772,7.581e-4 -0.9401131,0.2288699 -0.9401131,0.2262809 0,-0.00343 0.029738,-0.054015 0.064438,-0.1140407 C 6.8933999,6.7277807 7.0321877,6.4894112 7.1660168,6.2587564 7.3023243,6.0272448 7.5129837,5.6645439 7.6368997,5.4527533 7.7608161,5.2401064 7.9615614,4.8971258 8.083,4.6896237 8.2044374,4.4821207 8.5043161,3.9667938 8.7521498,3.5449284 8.9975048,3.1230647 9.2998602,2.6077384 9.4212994,2.4002353 9.5427399,2.1927307 9.7087858,1.9072014 9.7905706,1.7665794 9.7898453,1.6060251 9.7889202,1.277043 9.7839594,1.2753272 c -0.00496,-0.00258 -0.21457,0.2696181 -0.2567369,0.4582995 z"
       id="path2432"
       style="display:inline;fill:#005088;fill-opacity:1;stroke:none;stroke-width:0.00145774" />
  </g>
  <g
     id="g2462"
     style="display:none">
    <path
       style="display:inline;fill:#8dd0ff;fill-opacity:1;stroke:none;stroke-width:0.00146136"
       id="path2460"
       d="M 9.5215358,1.5375774 C 9.3828962,1.6833609 8.999161,2.0887934 8.6674159,2.4372919 7.9073725,3.23608 7.3280564,3.8502672 6.0555423,5.1976818 5.7138937,5.5608466 5.4118571,5.8791531 5.3871001,5.9050324 5.3054014,5.9895685 4.2037104,7.159285 4.1888563,7.1773989 c -0.00742,0.0095 -0.017315,0.020699 -0.019809,0.024154 -0.00496,0.00345 0.4183946,0.00689 0.9407704,0.00604 0.8986824,0 0.9481961,8.445e-4 0.9358175,0.014667 -0.019809,0.026737 -2.651485,3.3926911 -2.8594449,3.6601031 -0.1089329,0.139745 -0.3441229,0.442527 -0.5223744,0.672848 -0.1782504,0.230319 -0.3292701,0.423544 -0.3342206,0.428721 -0.00496,0.0061 -0.00249,0.01114 0.00742,0.01114 0.00989,-8.44e-4 0.1633954,-0.121636 0.3441235,-0.27 C 2.8618645,11.576766 3.193609,11.304179 3.4213743,11.119577 3.6466635,10.934114 4.0081172,10.639098 4.2235041,10.463986 4.4388908,10.288009 4.7953937,9.9973048 5.0157315,9.8170175 5.2360694,9.6367293 5.7386389,9.2269832 6.1298011,8.9069519 6.520969,8.5869243 7.0210622,8.1780396 7.2414004,7.9986159 7.4617382,7.8200522 7.8182404,7.5267606 8.0385794,7.3473355 8.2589179,7.1687737 8.5238184,6.9513918 8.6302736,6.8642677 L 8.823387,6.7072785 H 7.7365484 c -0.5966461,0 -1.0868372,-0.00259 -1.0868372,-0.0052 0,-0.00345 0.029706,-0.054341 0.06437,-0.1147287 C 6.7487407,6.527832 6.8873816,6.2880245 7.0210691,6.0559783 7.1572316,5.8230701 7.367668,5.4581811 7.4914529,5.2451129 7.6152382,5.0311831 7.8157711,4.6861335 7.9370811,4.4773796 8.05839,4.2686248 8.3579514,3.7501892 8.6055227,3.3257788 8.8506181,2.9013702 9.1526535,2.382935 9.2739642,2.1741802 9.3952762,1.9654237 9.5611464,1.678172 9.6428446,1.5367017 9.7270211,1.3943701 9.788915,1.2770533 9.7839594,1.2753272 9.7790038,1.2727365 9.6601735,1.3909181 9.5215334,1.5375637 Z" />
  </g>
</svg>
